<svg width="781" height="779" viewBox="0 0 781 779" fill="none" xmlns="http://www.w3.org/2000/svg">
<path d="M471 8.5L539.5 30L598.5 58.5L658.5 102.5L711 163.5L752 236L772 313.5L779.403 364.905L781 365V413.5L779.403 413.594L772 465L752 542.5L711 615L658.5 676L598.5 720L539.5 748.5L471 770L398.5 778.5L390.5 777.24L382.5 778.5L310 770L241.5 748.5L182.5 720L122.5 676L70 615L29 542.5L9 465L1.59668 413.594L0 413.5V365L1.59668 364.905L9 313.5L29 236L70 163.5L122.5 102.5L182.5 58.5L241.5 30L310 8.5L382.5 0L390.5 1.25879L398.5 0L471 8.5Z" fill="#F4CD5D"/>
<path d="M490.5 54L560 83L640.5 141L681 202.5L716 266L735 347V432L716 497.5L669.5 584L615.5 642L540.5 694L461.5 723L400.433 733.435L398.5 736.5L390.5 735.133L382.5 736.5L380.566 733.435L319.5 723L240.5 694L165.5 642L111.5 584L65 497.5L46 432V347L65 266L100 202.5L140.5 141L221 83L290.5 54L375.288 42.792L375.5 42L490.5 54Z" fill="#F7F0E6"/>
<path d="M490.5 54L560 83L640.5 141L681 202.5L716 266L735 347V432L716 497.5L669.5 584L615.5 642L540.5 694L461.5 723L400.433 733.435L398.5 736.5L390.5 735.133L382.5 736.5L380.566 733.435L319.5 723L240.5 694L165.5 642L111.5 584L65 497.5L46 432V347L65 266L100 202.5L140.5 141L221 83L290.5 54L375.288 42.792L375.5 42L490.5 54Z" fill="#F7F0E6"/>
<path d="M381.02 676.939L346.36 675.021L298.559 662.925L256.386 645.848L222.854 626.232L197.461 605.886L386 406.855L381.02 676.939ZM584.539 605.886L559.146 626.232L525.614 645.848L483.441 662.925L435.64 675.021L400.98 676.939L396 406.855L584.539 605.886ZM178.5 587.855L161.776 567.871L136.065 525.798L117.86 484.099L107.607 446.629V407.855L381.138 397.576L178.5 587.855ZM674.393 407.855V446.629L664.14 484.099L645.935 525.798L620.224 567.871L603.5 587.855L400.862 397.576L674.393 407.855ZM378.363 388.483L99 379.855L103.14 351.449L115.115 303.618L132.088 261.402L151.619 227.821L171.902 202.378L378.363 388.483ZM630.381 227.821L649.912 261.402L666.885 303.618L678.86 351.449L683 379.855L403.637 388.483L610.098 202.378L630.381 227.821ZM385.5 379.855L196.168 177.571L222.536 154.995L265.435 130.686L307.712 113.866L345.5 104.855L377.913 102L385.5 379.855ZM436.5 104.855L474.288 113.866L516.565 130.686L559.464 154.995L585.832 177.571L396.5 379.855L404.087 102L436.5 104.855Z" fill="#F4CD5D"/>
</svg>
