<svg width="932" height="933" viewBox="0 0 932 933" fill="none" xmlns="http://www.w3.org/2000/svg">
<path d="M539.248 19.919C538.11 6.25998 493.244 0.948408 470.953 0C416.318 13.659 396.019 144.177 392.699 207.729L480.913 257.527C509.369 251.836 558.883 227.364 529.288 175.005C499.694 122.646 523.597 49.798 539.248 19.919Z" fill="#365901"/>
<path d="M622.57 157.592C733.166 111.933 931.951 437.156 931.951 650.495C931.951 934.663 682.874 943.284 635.55 918.073C587.765 938.098 546.431 932.463 541.237 930.099C528.282 924.203 519.673 916.506 514.418 907.012C495.601 923.168 477.813 932.024 463.315 932.024C450.548 932.024 433.333 925.156 413.978 912.482C408.668 919.507 401.083 925.38 390.714 930.099C385.085 932.661 337.006 939.066 284.271 912.481C282.941 914.136 281.418 915.568 279.682 916.773C241.195 943.495 0.000273757 935.691 0 656.467C0 448.724 222.082 115.275 325.666 160.934C336.63 165.767 342.929 173.152 345.699 182.894C361.64 177.942 377.058 175.508 391.325 175.508C404.372 175.508 410.963 182.561 413.189 195.566C432.865 182.562 450.375 175.508 463.315 175.508C478.717 175.508 497.833 185.5 517.949 203.625C518.712 185.499 525.097 175.508 540.626 175.508C557.951 175.508 576.973 179.098 596.567 186.428C600.262 173.2 608.352 163.462 622.57 157.592Z" fill="#F4952E"/>
</svg>
