<svg width="835" height="835" viewBox="0 0 835 835" fill="none" xmlns="http://www.w3.org/2000/svg">
<circle cx="417.375" cy="417.375" r="417.375" fill="#7DB25E"/>
<g opacity="0.3">
<mask id="mask0_103_9402" style="mask-type:alpha" maskUnits="userSpaceOnUse" x="0" y="0" width="835" height="835">
<circle cx="417.375" cy="417.375" r="417.375" fill="#449D0F"/>
</mask>
<g mask="url(#mask0_103_9402)">
<path d="M736.925 416.957C736.925 726.586 417.341 865.107 417.341 865.107C417.341 865.107 97.7565 733.949 97.7565 416.957C73.4219 113.211 417.341 -31.1934 417.341 -31.1934C417.341 -31.1934 736.925 107.328 736.925 416.957Z" stroke="#38820E" stroke-width="40.764" stroke-linecap="round" stroke-dasharray="55.76 22.31"/>
<path d="M580.487 416.957C580.487 736.89 417.37 865.107 417.37 865.107C417.37 865.107 254.254 744.238 254.254 416.957C254.254 89.6757 417.37 -31.1934 417.37 -31.1934C417.37 -31.1934 580.487 80.85 580.487 416.957Z" stroke="#38820E" stroke-width="40.764" stroke-linecap="round" stroke-dasharray="55.76 22.31"/>
<path d="M413.576 416.957C413.576 736.89 416.364 865.107 416.364 865.107C416.364 865.107 419.152 744.238 419.152 416.957C419.152 89.6757 416.364 -31.1934 416.364 -31.1934C416.364 -31.1934 413.576 80.85 413.576 416.957Z" stroke="#38820E" stroke-width="40.764" stroke-linecap="round" stroke-dasharray="55.76 22.31"/>
</g>
</g>
</svg>
