<svg width="1007" height="907" viewBox="0 0 1007 907" fill="none" xmlns="http://www.w3.org/2000/svg">
<path d="M373.388 906.421C373.388 885.086 428.91 519.041 244.192 486.408L237.947 442.907C229.056 431.964 291.746 438.753 328.245 453.578C366.505 469.117 395.959 504.879 395.959 486.408C395.959 471.631 302.788 368.46 295.265 363.674L395.959 320.026C406.903 313.869 415.383 348.885 438.364 363.664C461.346 378.442 494.45 524.032 498.554 570.538C505.12 503.236 586.786 384.247 634.843 363.664L656.061 384.247C664.953 397.923 677.401 406.916 656.061 421.69C634.721 436.463 591.573 524.713 586.786 541.813L727.203 453.578L764.646 492.831C606.65 555.792 590.205 827.763 586.786 906.421H373.388Z" fill="#587D4A"/>
<path d="M493.432 0C552.912 0 606.074 27.0471 641.293 69.5117C660.271 42.5354 691.642 24.9082 727.131 24.9082C785.054 24.9082 832.01 71.864 832.01 129.787C832.01 130.054 832.006 130.321 832.004 130.588C929.728 139.543 1006.27 221.726 1006.27 321.786C1006.27 427.829 920.302 513.794 814.26 513.794C712.333 513.794 628.955 434.372 622.637 334.039C588.527 365.087 543.19 384.016 493.432 384.016C448.276 384.016 406.763 368.424 373.976 342.336C356.709 393.499 318.471 435.004 269.486 456.633C266.987 521.018 214.002 572.448 149.004 572.448C82.4123 572.448 28.4297 518.465 28.4297 451.873C28.4297 432.909 32.8089 414.968 40.6094 399.005C15.1644 366.433 0.000110858 325.439 0 280.903C0 174.86 85.965 88.8955 192.008 88.8955C194.758 88.8955 197.495 88.9538 200.218 89.0684C216.114 51.37 253.416 24.9082 296.898 24.9082C322.69 24.9082 346.308 34.2183 364.573 49.6611C398.643 18.8003 443.842 6.94339e-05 493.432 0Z" fill="#7CB568"/>
</svg>
