<svg width="784" height="915" viewBox="0 0 784 915" fill="none" xmlns="http://www.w3.org/2000/svg">
<path d="M501 0L511.5 64L469 76L440.5 94.5L411.5 138.5L395 189H334V160.5L346 121.5L366 76L395 40.5L440.5 10L501 0Z" fill="#559568"/>
<path d="M223.143 169.92L247.221 185.416L273.683 207.826L274.658 209.01L275.635 207.826L302.098 185.416L326.176 169.92L358.598 158H425.111L457.534 169.92L481.612 185.416L508.075 207.826L509.051 209.01L510.026 207.826L536.489 185.416L560.567 169.92L592.99 158H659.504L691.926 169.92L716.004 185.416L742.467 207.826L760.347 229.521L777.273 266.711L783.71 303.662L777.273 345.621L765.114 373.037L746.52 404.506L721.726 427.631L687.873 447.18L654.021 456H643.629L659.882 491.711L666.318 528.662L659.882 570.621L647.723 598.037L629.128 629.506L604.334 652.631L570.481 672.18L536.629 681H519.365L525.563 688.521L542.49 725.711L548.927 762.662L542.49 804.621L530.331 832.037L511.736 863.506L486.942 886.631L453.09 906.18L419.237 915H363.689L329.837 906.18L295.984 886.631L271.19 863.506L252.596 832.037L240.438 804.621L234 762.662L240.438 725.711L257.363 688.521L263.562 681H246.689L212.837 672.18L178.984 652.631L154.19 629.506L135.596 598.037L123.437 570.621L117 528.662L123.437 491.711L139.689 456H129.689L95.8369 447.18L61.9844 427.631L37.1904 404.506L18.5947 373.037L6.43652 345.621L0 303.662L6.43652 266.711L23.3633 229.521L41.2432 207.826L67.7051 185.416L91.7842 169.92L124.206 158H190.72L223.143 169.92Z" fill="#868FD4"/>
<path d="M366.806 61.7535L375 105.137L348.076 111H307.105L250.136 105.137L215.018 96.1479L186.143 68.7887L167.024 39.0845L160 0H209.946H266.915L307.105 7.8169L341.833 30.8768L366.806 61.7535Z" fill="#559568"/>
</svg>
