<svg width="627" height="801" viewBox="0 0 627 801" fill="none" xmlns="http://www.w3.org/2000/svg">
<path d="M529.909 7.51433C564.717 26.0939 576.451 74.2555 560.981 122.421C643.54 220.552 649.876 393.152 566.598 549.17C476.98 717.064 313.69 809.4 180.263 776.984C159.085 798.636 130.964 807.001 109.365 795.51C109.356 795.505 109.347 795.501 109.339 795.496C109.33 795.491 109.32 795.487 109.311 795.482C87.7054 783.95 78.9865 755.908 85.1953 726.239C-15.9927 633.424 -30.1513 446.37 59.4664 278.476C142.767 122.417 289.713 31.6888 417.151 45.6481C448.558 5.9896 495.101 -11.065 529.909 7.51433Z" fill="#F4CD5D"/>
</svg>
