<svg width="913" height="722" viewBox="0 0 913 722" fill="none" xmlns="http://www.w3.org/2000/svg">
<path d="M656.96 113.223L711.472 128.152L703.102 162.418L680.1 209.554L641.373 271.805L610.484 299.729L563.629 325.02L518.721 330.341L469.812 316.479L497.852 259.018L529.835 193.477L561.391 151.627L607.417 124.62L656.96 113.223Z" fill="#559568"/>
<path d="M458.514 563.009L469.339 618.482L434.918 626.195L382.471 626.512L309.498 619.447L270.763 604.166L227.299 573.411L202.594 535.534L193.301 485.555L257.237 485.169L330.164 484.729L381.673 494.425L426.307 523.676L458.514 563.009Z" fill="#559568"/>
<path d="M153.827 0L97.9525 29.6836L62.0826 56.6059L14.4859 114.592L0 181.553L14.4859 267.152L41.3884 327.9L97.9525 379.673L164.174 402.454L241.432 404.525L312.482 379.673L375.255 327.9L408.365 246.443V162.914L389.74 91.8119L322.829 29.6836L241.432 0H153.827Z" fill="#485A7F"/>
<path d="M147.856 122.254L154.897 148.497L136.975 172.819L163.858 186.901L169.618 214.424L197.141 200.982L227.225 210.583V186.901L252.187 169.619L234.905 148.497L240.026 122.254H211.863L192.661 101.131L176.659 122.254H147.856Z" fill="#868FD4"/>
<path d="M658.202 317.475L602.327 347.159L566.458 374.081L518.861 432.067L504.375 499.028L518.861 584.627L545.763 645.375L602.327 697.149L668.549 719.929L745.807 722L816.857 697.149L879.63 645.375L912.74 563.918V480.39L894.115 409.287L827.204 347.159L745.807 317.475H658.202Z" fill="#485A7F"/>
<path d="M675.274 531.899L682.315 558.142L664.393 582.464L691.276 596.546L697.036 624.069L724.559 610.627L754.643 620.228V596.546L779.605 579.264L762.323 558.142L767.444 531.899H739.281L720.079 510.776L704.077 531.899H675.274Z" fill="#868FD4"/>
</svg>
