<svg width="796" height="846" viewBox="0 0 796 846" fill="none" xmlns="http://www.w3.org/2000/svg">
<path d="M209.487 517.706H154L168.228 417.34L180.321 349.007L209.487 287.791L228.694 246.506L284.182 194.544L325.441 155.394L385.197 117.668L431.436 94.1783L494.037 77.8066L516.09 139.022H471.273L420.766 155.394L366.701 183.866L385.197 205.221L420.766 262.878L471.273 349.007L530.318 438.695L573 497.775L516.09 529.807L483.367 469.303L444.241 417.34L406.538 349.007L366.701 298.468L325.441 225.152L284.182 262.878L261.418 298.468L245.056 329.076L228.694 384.597L209.487 455.066V517.706Z" fill="#559568"/>
<path d="M511.455 63.9052L455.882 93.2679L473.239 128.446L509.585 174.063L566.65 232.291L607.812 263.417L663.889 271.295L713.923 266.232L763.67 239.38L719.363 183.771L668.825 120.342L624.468 82.5281L567.986 64.3188L511.455 63.9052Z" fill="#559568"/>
<path d="M195.544 471.81L232.52 476.084L275.895 491.757L322.825 522.389L352.69 566.557L371.179 618.561L379 664.152L362.646 729.691L330.647 781.695L290.827 819.452L223.275 845.81H177.057L132.97 837.974L76.7959 812.328L40.5312 773.859L10.666 719.006L0 674.838L4.97754 618.561L35.5537 553.733L62.5742 516.689L102.394 491.757L152.88 471.81H195.544Z" fill="#FD7E9C"/>
<path d="M612.544 471.81L649.52 476.084L692.895 491.757L739.825 522.389L769.69 566.557L788.179 618.561L796 664.152L779.646 729.691L747.647 781.695L707.827 819.452L640.275 845.81H594.057L549.97 837.974L493.796 812.328L457.531 773.859L427.666 719.006L417 674.838L421.978 618.561L452.554 553.733L479.574 516.689L519.394 491.757L569.88 471.81H612.544Z" fill="#FD7E9C"/>
</svg>
