<svg width="932" height="1010" viewBox="0 0 932 1010" fill="none" xmlns="http://www.w3.org/2000/svg">
<path d="M654.748 278.081L698.748 368.081L733.248 460.081L719.748 577.581L687.248 693.081L631.748 785.581L551.248 864.081L486.748 949.081L507.248 1009.08H583.248L654.748 988.581L719.748 949.081L781.748 903.081L837.248 838.581L885.748 771.581L917.748 695.581L931.748 598.581V520.081L917.748 432.581L885.748 342.581L837.248 261.581L781.748 197.081L719.748 160.081L671.248 174.081L654.748 220.081V278.081Z" fill="#F4CD5D"/>
<path d="M605.128 226.309L579.562 323.172L545.501 415.335L458.45 495.402L358.332 561.53L255.855 595.218L143.619 601.965L39.2365 624.093L15.5097 682.892L73.0076 732.591L140.507 763.838L215.513 776.46L292.5 782.203L376.667 769.699L457.174 750.726L531.082 714.154L605.106 649.923L656.44 590.534L703.067 515.181L737.712 426.165L753.988 333.169L754.178 248.078L731.468 179.542L685.62 158.418L643.056 182.429L605.128 226.309Z" fill="#F4CD5D"/>
<path d="M717.736 256.886L653.859 230.679L666.704 185.454L665.842 149.292L642.144 98.4431L605.575 55.2969L639.625 5.13263e-06L665.461 15.9086L694.116 48.5563L724.198 92.0843L740.192 138.189L742.442 196.46L717.736 256.886Z" fill="#93664D"/>
</svg>
