<svg width="760" height="822" viewBox="0 0 760 822" fill="none" xmlns="http://www.w3.org/2000/svg">
<path d="M349.367 55.65L311.611 108.383L344.403 137.963L361.763 167.171L368.28 219.463L360.71 272.049L415.403 299.062L428.024 273.509L434.535 233.227L436.752 183.575L426.472 138.903L399.183 91.4079L349.367 55.65Z" fill="#559568"/>
<path d="M600.752 54.9669L632.685 85.4559L614.216 105.905L580.915 129.772L531.195 158.194L499.6 165.928L458.007 165.928L425.163 152.923L396.686 125.246L437.281 96.1508L483.586 62.964L520.807 45.905L562.467 44.4178L600.752 54.9669Z" fill="#559568"/>
<path fill-rule="evenodd" clip-rule="evenodd" d="M120.203 220.565C243.406 163.34 352.792 238.936 361.504 244.531C361.763 244.697 362.013 244.852 362.256 245C365.693 248.696 371.796 252.845 374.756 255.999L418.255 262.499L428.756 255.999C431.493 254.656 436.322 253.275 443.39 249.854C554.97 195.892 649.285 237.254 657.656 241.077C718.106 268.731 744.187 338.43 748.929 354.107C762.305 398.273 759.669 459.345 757.421 472.245C740.226 570.69 722.933 613.266 713.957 633.755C704.986 654.248 649.749 735.208 639.867 744.452C629.992 753.672 605.219 786.668 545.103 811.604C539.701 813.843 461.507 846.315 368.07 778.885C361.942 774.455 363.13 768.488 352.452 775.192C341.773 781.895 303.379 811.808 231.723 797.977C214.348 794.624 163.107 772.628 116.667 719.288C108.787 710.238 93.8398 689.241 89.5581 684.046C86.1913 679.954 22.2628 550.657 18.4975 540.315C0.748777 491.549 -0.0653836 440.952 0.00337168 428.378C0.868147 281.706 108.854 225.83 120.203 220.565Z" fill="#F05847"/>
</svg>
