<svg width="784" height="1055" viewBox="0 0 784 1055" fill="none" xmlns="http://www.w3.org/2000/svg">
<path d="M336.916 173.792C411.008 269.122 384.132 413.972 384.132 413.972C384.132 413.972 237.129 404.263 163.038 308.934C88.9459 213.605 67.8069 106.073 115.822 68.7544C163.837 31.436 262.825 78.4632 336.916 173.792Z" fill="#52A86B"/>
<path d="M612.875 308.552C538.797 404.759 391.501 415.574 391.501 415.574C391.501 415.574 364.308 270.406 438.386 174.199C512.464 77.9915 611.576 30.0759 659.76 67.1765C707.944 104.277 686.952 212.344 612.875 308.552Z" fill="#52A86B"/>
<path d="M783.641 577.624C783.641 771.942 474.138 818.727 391.821 1054.57C333.551 829.826 0 771.942 0 577.624C0 383.307 391.821 379.55 391.821 379.55C391.821 379.55 783.641 383.307 783.641 577.624Z" fill="#BD1749"/>
</svg>
