<svg width="574" height="906" viewBox="0 0 574 906" fill="none" xmlns="http://www.w3.org/2000/svg">
<path d="M277.358 72.8803L287 124.081L255.318 131H207.105L140.067 124.081L98.7423 113.472L64.7641 81.1831L42.265 46.1268L34 0H92.7731H159.811L207.105 9.22535L247.971 36.4401L277.358 72.8803Z" fill="#559568"/>
<path d="M309.112 130.381L358.404 141.897L397.562 170.92L427.506 210.077L437.18 234.032L448.697 271.808V304.977L453.765 332.156L459.292 363.942L475.877 396.19L489.697 420.605L518.72 456.078L535.765 478.65L551.428 517.348L566.169 566.64L574 636.662L566.169 697.472L535.765 762.887L499.371 814.943L445.012 862.393L386.506 889.572L323.394 905.235H250.606L187.494 889.572L128.988 862.393L74.6289 814.943L38.2354 762.887L7.83105 697.472L0 636.662L7.83105 566.64L22.5732 517.348L38.2354 478.65L55.2803 456.078L84.3027 420.605L98.123 396.19L114.708 363.942L120.235 332.156L125.303 304.977V271.808L136.82 234.032L146.494 210.077L176.438 170.92L215.596 141.897L264.888 130.381H309.112Z" fill="#F4CD5D"/>
</svg>
