<svg width="1124" height="1142" viewBox="0 0 1124 1142" fill="none" xmlns="http://www.w3.org/2000/svg">
<path d="M915.817 354.078C986.232 476.04 938.877 686.846 837.825 832.751C748.909 961.134 456.075 1127.28 297 986.55C212.302 911.618 315.113 782.685 294.206 671.268C252.178 447.288 298.425 310.624 459.832 217.436C621.238 124.247 807.486 166.443 915.817 354.078Z" fill="#FCAA1D"/>
<path d="M598.776 12.736C588.974 6.6032 576.056 9.57781 569.923 19.38C563.79 29.1822 566.765 42.1001 576.567 48.2329L587.671 30.4845L598.776 12.736ZM587.671 30.4845L576.567 48.2329C585.418 53.7707 598.793 71.0125 609.529 98.4862C619.867 124.944 626.264 157.212 624.291 188.723L645.186 190.032L666.081 191.34C668.491 152.86 660.739 114.495 648.529 83.2466C636.716 53.0145 619.142 25.4783 598.776 12.736L587.671 30.4845Z" fill="#B77F51"/>
<path d="M625.68 90.7818C667.718 183.781 857.748 224.713 929.096 80.6806C848.876 -41.9742 669.416 0.827877 625.68 90.7818Z" fill="#60942C"/>
</svg>
