<svg width="580" height="1000" viewBox="0 0 580 1000" fill="none" xmlns="http://www.w3.org/2000/svg">
<path d="M368.331 21.9176C371.032 12.9131 365.923 3.42357 356.918 0.722202C347.913 -1.97916 338.424 3.13057 335.723 12.1351L352.027 17.0264L368.331 21.9176ZM339.715 58.066L356.019 62.9573L368.331 21.9176L352.027 17.0264L335.723 12.1351L323.411 53.1748L339.715 58.066Z" fill="#644B3E"/>
<path d="M439.764 158.324C418.891 22.6509 244.771 24.6849 207.479 89.169C-144.057 697.035 17.2612 974.209 207.479 997.305C473.448 1029.6 656.266 760.493 547.885 545.738C439.504 330.983 457.327 272.482 439.764 158.324Z" fill="#92C342"/>
</svg>
