<svg width="733" height="841" viewBox="0 0 733 841" fill="none" xmlns="http://www.w3.org/2000/svg">
<path d="M489 0L499.5 64L457 76L428.5 94.5L399.5 138.5L383 189H322V160.5L334 121.5L354 76L383 40.5L428.5 10L489 0Z" fill="#559568"/>
<path d="M468 177L514 203.5L564 226.5L593.5 256.5L623.5 299.5L653 362.5L660 394V443L653 487L642 533L632.5 562.5L611 603.5L593.5 631.5L547 683.5L499.5 739L476.5 765L450.5 799L418 828L384.104 839.769L383 840.5H349L347.896 839.769L314 828L281.5 799L255.5 765L232.5 739L185 683.5L138.5 631.5L121 603.5L99.5 562.5L90 533L79 487L72 443V394L79 362.5L108.5 299.5L138.5 256.5L168 226.5L218 203.5L264 177H468Z" fill="#F05544"/>
<path d="M376.5 606.5L383 613.5V637L379 649L372 656L363 658.5L354 656L347 649L343 637V613.5L349.5 606.5L363.5 603L376.5 606.5Z" fill="#313234"/>
<path d="M308.5 506.5L315 513.5V537L311 549L304 556L295 558.5L286 556L279 549L275 537V513.5L281.5 506.5L295.5 503L308.5 506.5Z" fill="#313234"/>
<path d="M440 505.5L447 512.5L451 524.5V548L444.5 555L430.5 558.5L417.5 555L411 548V524.5L415 512.5L422 505.5L431 503L440 505.5Z" fill="#313234"/>
<path d="M236 405.5L243 412.5L247 424.5V448L240.5 455L226.5 458.5L213.5 455L207 448V424.5L211 412.5L218 405.5L227 403L236 405.5Z" fill="#313234"/>
<path d="M376.5 406.5L383 413.5V437L379 449L372 456L363 458.5L354 456L347 449L343 437V413.5L349.5 406.5L363.5 403L376.5 406.5Z" fill="#313234"/>
<path d="M508 405.5L515 412.5L519 424.5V448L512.5 455L498.5 458.5L485.5 455L479 448V424.5L483 412.5L490 405.5L499 403L508 405.5Z" fill="#313234"/>
<path d="M239.915 95L301.551 112.873L357.884 151.93L366.5 168.913L375.116 151.93L431.449 112.873L493.085 95H567.313L628.286 120.155L693.898 182.38L733 283H518.932L453.32 269.761L414.218 251.225L366.5 214.372L318.782 251.225L279.68 269.761L214.068 283H0L39.1022 182.38L104.714 120.155L165.687 95H239.915Z" fill="#559568"/>
</svg>
