<svg width="195" height="216" viewBox="0 0 195 216" fill="none" xmlns="http://www.w3.org/2000/svg">
<path d="M0.973952 107.731C-1.29575 115.886 -3.3833 144.774 41.4807 177.342C86.3446 209.91 149.002 223.517 172.892 211.169C196.782 198.822 197.875 181.436 188.183 171.193C178.491 160.95 147.842 153.343 159.92 141.36C171.997 129.377 193.402 131.747 194.429 115.19C195.456 98.6323 167.673 110.002 165.089 94.9695C162.504 79.9369 188.134 51.8773 192.441 28.2429C196.748 4.60847 171.02 -10.8384 157.07 9.29888C143.12 29.4362 137.521 71.3185 124.217 79.0088C110.914 86.6991 100.891 70.5727 92.6402 62.9818C84.3897 55.391 73.0247 69.1307 78.7072 92.2679C84.3898 115.405 84.2903 137.929 66.7622 138.476C49.2341 139.023 31.7226 106.207 26.3548 99.7759C20.987 93.3452 5.03292 93.1795 0.973952 107.731Z" fill="#FEA57D"/>
<path d="M172.56 17.188C161.761 47.3898 148.742 76.7506 133.611 105.03C121.765 127.421 108.512 149.083 92.1929 168.309C78.0776 184.883 58.4124 203.396 35.1189 203.114C34.539 203.114 32.3853 203.877 33.9591 203.893C52.6469 204.092 68.7503 193.717 82.004 181.419C101.586 163.188 116.397 139.984 129.486 116.781C147.58 84.9022 162.81 51.4795 174.996 16.9063C175.145 16.4754 172.792 16.5416 172.593 17.0886L172.56 17.188Z" fill="#BCA28E"/>
</svg>
