<svg width="93" height="131" viewBox="0 0 93 131" fill="none" xmlns="http://www.w3.org/2000/svg">
<path d="M51.8183 77.335H51.901C80.2231 70.9311 81.4394 56.9136 81.4394 56.9136C85.2124 40.4191 80.9844 4.33981 69.4917 3.06399C57.999 1.78817 58.4706 21.3894 58.4706 21.3894C58.4706 21.3894 47.8467 -1.68305 38.9107 0.0981275C29.9747 1.87931 24.8448 12.293 25.5398 24.9518C25.5398 24.9518 20.0045 5.06885 7.63472 9.02887C-4.73501 12.9889 -1.68187 52.3488 13.9561 67.1451C13.9561 67.1451 22.6604 82.0572 47.8053 78.0641C51.3377 89.2998 50.3062 101.477 44.9342 111.956C43.2794 91.6425 23.1321 77.6664 14.5188 90.1098C4.84637 104.078 33.8056 113.713 42.543 116.256C40.1783 120.013 37.3171 123.432 34.0373 126.421C32.0764 128.202 34.6578 131.441 36.6353 129.635C47.8632 119.429 54.2922 106.149 53.9364 90.8803C53.8258 86.2918 53.1137 81.7378 51.8183 77.335Z" fill="#ECC889"/>
<path d="M88.4643 71.9169C73.9516 60.8902 51.231 108.087 51.231 108.087C78.6264 111.128 102.977 82.952 88.4643 71.9169Z" fill="#ECC889"/>
</svg>
