<svg width="147" height="233" viewBox="0 0 147 233" fill="none" xmlns="http://www.w3.org/2000/svg">
<path d="M34.6893 95.1613C34.2931 94.5458 33.7801 94.0135 33.1792 93.5943C28.6853 89.7556 24.2523 85.8439 19.6488 82.1509C15.4958 78.7625 11.5662 75.1106 7.88434 71.2177C6.80316 70.1216 5.81343 68.9393 4.92496 67.6826C4.0298 66.4787 3.41821 65.089 3.13567 63.6168C2.85314 62.1446 2.9069 60.6277 3.293 59.1791C3.65504 57.686 4.23353 56.2537 5.01018 54.9273C6.22803 52.935 7.28758 50.8456 8.44454 48.8533C10.2525 45.7938 12.3926 42.9421 14.8261 40.3497C16.0172 39.2516 17.4532 38.4522 19.0155 38.0174C19.2894 37.9399 19.5762 37.9182 19.8587 37.9537C20.1411 37.9891 20.4135 38.081 20.6596 38.2238C21.3865 38.5915 22.0422 39.0852 22.596 39.6817C24.7273 41.6861 26.5175 43.982 28.4417 46.1687C30.366 48.3553 32.0953 50.4812 34.0195 52.5828C37.5513 56.4701 41.3266 60.1024 44.7488 64.1355C44.8002 64.1982 44.8619 64.2517 44.9315 64.2934C45.153 64.3568 45.3831 64.3854 45.6135 64.3784C45.6744 64.3784 45.7718 64.099 45.7475 63.9533C45.7131 63.6359 45.6478 63.3226 45.5526 63.0179C44.4565 58.9483 43.0073 55.0002 41.6554 51.0157C38.7651 42.423 35.8544 33.8426 32.9234 25.2742C32.1759 23.0522 31.6536 20.761 31.3646 18.4349C31.1881 16.8183 31.4576 15.1844 32.144 13.7094C32.8031 11.7676 34.1914 10.1564 36.0168 9.21452C36.2448 9.12886 36.4523 8.99649 36.6257 8.82585C38.3429 6.65137 40.8639 5.67954 43.2021 4.4283C44.2008 3.90594 45.2238 3.44433 46.2224 2.92197C48.5894 1.68566 51.1251 0.801597 53.7488 0.297967C56.3006 -0.227679 58.9473 -0.0555471 61.4091 0.796074C64.7967 2.0103 67.6641 4.34727 69.5322 7.41665C71.5935 10.5102 73.2318 13.8644 74.4036 17.3902C75.1708 19.8198 75.7919 22.2494 76.34 24.679C77.3021 28.9308 77.9476 33.2433 78.52 37.568C79.1898 42.5972 79.5186 47.6628 80.5294 52.6435C81.2114 52.6435 81.3575 52.1091 81.5402 51.696C82.7581 48.8899 84.0977 46.1079 85.1938 43.2653C86.6796 39.5116 88.0558 35.7214 89.4319 31.9313C89.9169 30.5688 90.5979 29.2839 91.4536 28.1168C91.8262 27.5968 92.3057 27.162 92.8601 26.8415C93.4145 26.521 94.0311 26.3221 94.6687 26.2581C95.8809 26.082 97.1182 26.2201 98.2614 26.6591C100.675 27.6089 103.012 28.7419 105.252 30.0483C106.592 30.8136 107.907 31.6154 109.21 32.4779C111.327 33.6501 112.97 35.5193 113.859 37.7661C114.747 40.0128 114.826 42.4977 114.081 44.7959C113.74 46.0107 113.472 47.3105 113.083 48.5374C112.073 51.6009 110.819 54.5787 109.332 57.442C107.554 60.977 105.617 64.4514 103.742 67.9378C103.494 68.2554 103.349 68.6411 103.328 69.0432C104.124 68.9181 104.899 68.681 105.629 68.3387L117.236 61.305C117.359 61.197 117.493 61.1033 117.637 61.0256C119.14 60.4203 120.521 59.5523 121.717 58.4624C122.088 58.1753 122.498 57.9423 122.935 57.77C123.776 57.3457 124.733 57.2087 125.659 57.3799C126.586 57.551 127.43 58.0209 128.062 58.7174C128.997 59.7103 129.814 60.8068 130.498 61.9853C132.896 66.3898 134.971 70.9612 136.709 75.6639C138.049 79.4055 136.94 82.6369 134.882 85.7225C133.263 88.1521 130.888 89.9499 129.219 92.343C127.429 93.2055 126.479 95.0763 124.725 95.9874C123.777 96.6053 122.866 97.2787 121.997 98.004C121.224 98.5722 120.41 99.0838 119.562 99.5347C118.946 99.7446 118.433 100.178 118.125 100.749C117.869 101.272 117.15 101.551 116.651 101.964C116.606 102.024 116.576 102.094 116.563 102.168C116.55 102.242 116.555 102.318 116.578 102.389C116.613 102.458 116.665 102.516 116.729 102.558C116.793 102.601 116.867 102.626 116.943 102.632C118.224 102.482 119.486 102.197 120.706 101.782C124.36 100.737 128.014 99.7048 131.667 98.6236C133.402 98.1955 135.198 98.0681 136.977 98.2469C137.546 98.2665 138.101 98.4251 138.593 98.709C139.086 98.9929 139.501 99.3932 139.802 99.8747C140.851 101.417 141.698 103.087 142.323 104.843C143.573 108.597 144.522 112.444 145.161 116.347C145.733 119.53 146.147 122.725 146.513 125.932C146.559 126.251 146.649 126.561 146.781 126.855C147.073 127.702 147.073 128.621 146.781 129.467C146.193 131.834 144.997 134.007 143.31 135.772C141.183 138.015 138.717 139.913 136.003 141.396C129.536 144.959 122.792 147.994 115.835 150.471C108.236 153.241 100.551 155.84 92.915 158.513C92.5253 158.634 92.1356 158.732 91.758 158.89C91.6174 158.922 91.4856 158.985 91.3721 159.074C91.2586 159.163 91.166 159.276 91.1009 159.405C91.0359 159.533 91 159.675 90.9957 159.819C90.9914 159.963 91.0188 160.106 91.076 160.238C91.4779 161.72 91.9285 163.19 92.3548 164.66C94.3521 171.576 96.3453 178.488 98.3345 185.396C99.7472 190.256 101.136 195.2 102.573 200.083C105.106 208.684 107.675 217.285 110.221 225.886C110.343 226.274 110.428 226.675 110.537 227.1C111 228.643 111.329 230.149 109.417 231.012C108.552 232.883 106.92 233.077 105.13 232.98C103.997 232.98 102.853 232.98 101.72 232.98C100.739 232.995 99.7742 232.726 98.9423 232.207C98.1104 231.687 97.4468 230.939 97.0313 230.052C96.5042 229.054 96.0405 228.023 95.643 226.967C94.1247 222.277 92.639 217.576 91.1856 212.863C90.1018 209.303 89.0788 205.732 88.0679 202.161C86.436 196.402 85.0111 190.596 83.6837 184.777C82.2953 178.719 80.9029 172.645 79.5064 166.555C79.3116 165.692 79.2507 164.793 79.0193 163.943C78.7879 163.093 78.4834 162.911 77.5944 163.154C75.2561 163.785 72.9178 164.478 70.5795 165.121C66.2244 166.382 61.8004 167.392 57.3293 168.146C53.1764 168.802 49.0478 169.592 44.8219 169.908C42.3862 170.09 39.9505 170.357 37.5878 170.588C34.6729 170.801 31.7463 170.801 28.8314 170.588C26.7968 170.623 24.7797 170.208 22.9249 169.373C20.6404 168.17 18.4645 166.772 16.4215 165.194C14.9953 163.978 13.8982 162.424 13.2307 160.675C11.4996 156.572 10.3005 152.265 9.66239 147.859C9.19961 144.834 8.77335 141.785 8.35928 138.76C8.12789 137.132 8.70029 135.553 8.749 133.901C8.77149 133.661 8.87951 133.437 9.05347 133.269C10.5149 132.055 11.9032 130.609 13.998 130.439C14.2415 130.439 14.4851 130.439 14.7287 130.439C18.3822 130.342 22.0358 129.917 25.6041 129.491C26.1676 129.449 26.7335 129.449 27.297 129.491C30.1467 129.625 32.9478 128.969 35.8219 128.896C37.0294 128.768 38.226 128.553 39.4024 128.252C37.8192 128.009 36.7597 127.803 35.688 127.681C33.4349 127.438 31.1576 127.317 28.9289 126.977C26.7002 126.637 24.0574 126.442 21.6826 126.187C19.4539 125.956 17.2253 125.555 14.9479 125.519C11.867 125.422 8.81411 124.903 5.87488 123.976C2.22132 122.895 0.187487 119.797 0.00480865 115.886C-0.0343634 113.845 0.165902 111.806 0.601546 109.812C1.50512 105.212 2.64738 100.663 4.02372 96.1818C4.26729 95.3315 4.68137 94.5297 4.98583 93.6914C5.61382 92.1205 6.74963 90.8038 8.21314 89.9499C9.16612 89.2728 10.274 88.8446 11.4355 88.7046C12.5971 88.5645 13.7754 88.717 14.8626 89.1481C19.6488 90.6666 24.4715 92.0636 29.1724 93.8494C30.0127 94.1652 30.8531 94.4689 31.6081 94.8576C32.4715 95.3158 33.4454 95.526 34.4214 95.465C34.531 95.6594 34.6284 95.8538 34.872 95.5866L34.6893 95.1613Z" fill="white"/>
</svg>
