<svg width="160" height="186" viewBox="0 0 160 186" fill="none" xmlns="http://www.w3.org/2000/svg">
<path d="M100.846 82.8539C82.1365 91.232 63.6346 110.025 53.8441 121.032C63.1536 95.0859 78.0408 70.8797 99.6892 53.7884C131.375 52.0612 176.401 17.0149 153.96 2.32099C134.119 -10.6844 105.852 34.5445 97.2969 49.3028C91.0409 53.9105 85.2339 59.0889 79.9521 64.7701C83.3759 53.7208 85.1586 42.2362 85.2439 30.6776C85.2439 12.2329 67.6392 5.02777 57.9397 26.9011C49.9695 44.9462 56.6395 81.2041 59.1749 93.4877C53.6702 103.378 49.054 113.73 45.3798 124.422C43.2995 89.3502 27.619 54.9742 13.3038 59.0214C-7.92851 65.0408 1.1729 102.42 7.20584 126.046C12.0426 144.955 28.2951 162.755 34.601 169.123C33.9639 174.098 33.5349 179.086 33.3008 184.036C33.1838 187.413 40.764 185.969 40.868 183.211C40.933 181.496 41.0371 179.782 41.1671 178.055C69.1475 184.5 127.514 169.355 134.6 156.207C141.972 142.532 133.624 137.505 102.706 141.514C76.2335 144.955 50.6976 165.733 41.5181 173.892C43.1285 159.106 46.2031 144.514 50.6976 130.326C82.4745 134.85 159.694 104.547 158.783 86.5016C157.912 67.6315 128.151 70.6348 100.846 82.8539Z" fill="#BBBEA0"/>
</svg>
