<svg width="243" height="311" viewBox="0 0 243 311" fill="none" xmlns="http://www.w3.org/2000/svg">
<path d="M50.315 59.5989C52.8319 51.6223 55.4149 42.2869 58.734 33.2036C62.8665 21.8961 69.494 11.8925 76.7038 2.31618C77.715 0.979437 80.2426 -0.291629 81.6603 0.058992C83.0781 0.409613 84.8148 2.63385 85.1556 4.28834C89.5518 25.6653 96.7949 46.5712 96.4102 68.7808C96.4102 68.9561 96.6076 69.1315 96.7945 69.4602C98.9926 67.2688 101.268 65.1869 103.389 62.9736C115.479 50.3732 130.668 42.5171 146.252 35.3074C147.155 35.0083 148.111 34.9016 149.057 34.994C150.004 35.0865 150.92 35.3762 151.748 35.8443C152.572 36.3154 152.957 39.23 152.308 40.2271C145.077 51.8962 142.79 65.428 137.361 77.8203C130.492 93.4668 124.315 109.431 114.391 123.522C103.587 138.861 88.5624 147.857 70.6037 152.546C66.6243 153.612 62.8064 155.204 59.2508 157.28C58.3628 157.903 57.6122 158.701 57.0452 159.624C56.4781 160.548 56.1066 161.577 55.9536 162.649C53.0741 193.186 56.2284 223.054 66.6915 252.013C68.1203 255.958 69.9884 259.76 71.8568 264.066C74.7253 262.357 77.4623 261.206 79.6055 259.365C92.0909 248.649 104.433 237.736 114.391 224.533C119.293 218.036 123.645 211.111 128.118 204.307C128.422 203.836 128.613 203.301 128.678 202.745C128.743 202.188 128.679 201.624 128.492 201.096C123.227 193.602 122.359 184.924 121.414 176.257C119.567 159.186 121.238 142.367 125.183 125.724C125.248 124.948 125.493 124.198 125.898 123.532C127.282 122.086 128.811 119.829 130.371 119.763C132.141 119.676 134.603 121.221 135.658 122.798C137.203 125.387 138.365 128.184 139.108 131.104C141.252 138.028 143.186 145.019 145.231 151.922C145.439 152.634 145.758 153.302 146.143 154.299C158.287 134.577 174.619 119.237 191.929 104.785C193.271 103.593 194.746 102.56 196.326 101.706C199.744 99.986 202.799 101.706 202.92 105.563C202.926 107.906 202.616 110.239 201.997 112.499C200.008 120.289 198.172 128.123 195.688 135.749C193.204 143.375 189.995 150.738 187.083 158.288C187.581 158.174 188.072 158.035 188.556 157.871C196.106 155.11 203.602 152.185 211.218 149.61C218.626 147.112 226.143 144.909 233.65 142.674C236.573 141.809 239.959 140.066 242.201 143.518C244.443 146.969 241.453 149.161 239.53 151.363C231.65 160.37 223.538 169.168 215.79 178.273C195.589 201.973 169.047 208.646 139.339 206.761C136.416 206.575 134.756 206.947 133.218 209.654C120.875 231.217 103.543 248.485 84.7708 264.362C81.8253 266.838 78.2537 268.58 74.6817 270.859C75.4291 272.327 76.0991 273.971 77.0333 275.439C83.0342 284.994 89.0644 294.522 95.1239 304.026C95.3107 304.311 95.5309 304.563 95.7287 304.826C97.0366 306.655 97.586 308.617 95.5967 310.183C93.6074 311.75 91.5081 310.885 90.1013 309.088C88.0901 306.557 86.1664 303.938 84.342 301.264C56.8654 261.009 45.1165 216.546 48.3917 168.061C48.7104 163.295 49.3591 158.562 49.7988 153.817C49.9954 152.607 49.9765 151.372 49.7435 150.169C46.6222 138.916 42.6328 128.102 34.6096 119.161C24.3334 107.7 15.5409 95.2198 9.33118 81.0745C2.3851 65.3842 -1.01101 49.0254 0.263904 31.856C0.483488 29.2087 1.14471 26.6164 2.22027 24.1861C3.63806 20.9867 7.12206 20.3622 9.33118 23.0357C19.4096 35.2089 32.6095 43.9306 44.0947 54.5369C46.139 56.6187 48.6554 58.306 50.315 59.5989Z" fill="#FEFFFE"/>
</svg>
