<svg width="214" height="275" viewBox="0 0 214 275" fill="none" xmlns="http://www.w3.org/2000/svg">
<path d="M71.9322 130.568C50.2544 114.625 15.001 98.5173 2.34196 122.378C-8.41485 142.321 20.4889 155.302 36.1862 161.718C50.6791 168.297 72.2612 168.366 83.7981 180.269C95.9508 192.308 100.741 212.06 102.958 231.402C105.175 250.745 105.27 254.362 108.226 261.228C120.762 288.993 135.488 268.463 136.966 254.567C139.593 229.136 134.406 202.109 156.043 184.951C169.879 173.798 186.822 167.123 199.276 154.92C208.459 145.652 222.665 128.288 206.981 117.573C191.927 107.376 168.812 122.296 155.332 127.251C167.101 114.543 205.886 70.3843 186.083 52.1749C166.28 33.9654 138.882 75.9945 129.001 89.0305C130.246 75.9399 140.292 -8.0773 103.82 0.631551C80.1165 6.2964 89.8466 73.6057 93.2543 93.4532C83.784 83.1063 48.3522 32.7231 31.0127 58.5084C18.2715 78.2057 49.1322 107.745 71.9322 130.568Z" fill="#ECC889"/>
</svg>
