<svg width="125" height="136" viewBox="0 0 125 136" fill="none" xmlns="http://www.w3.org/2000/svg">
<path d="M86.013 53.0609C88.5408 52.2267 91.0647 51.3766 93.5925 50.5544C98.0794 49.0897 102.522 47.4574 107.25 46.9265C110.979 46.5075 114.709 46.2919 118.351 47.5531C123.727 49.417 125.89 53.3522 124.668 58.8759C123.639 63.5256 120.906 67.0178 117.273 69.8914C112.109 73.9703 106.148 76.5367 99.9464 78.5202C95.3073 80.0049 90.5521 81.1304 85.8569 82.4355C84.9595 82.683 84.086 83.0102 83.2007 83.2976C83.2247 83.4413 83.2527 83.5809 83.2768 83.7206C84.9393 83.4971 86.5979 83.2577 88.2645 83.0581C92.3187 82.5672 96.3649 81.9406 100.439 81.6852C102.222 81.5774 104.129 82.0324 105.859 82.5992C110.795 84.1956 112.894 89.1206 110.795 93.8741C109.317 97.2186 106.757 99.6612 103.772 101.641C97.6148 105.716 90.8204 108.134 83.5252 109.312C74.6252 110.752 65.6157 111.411 56.6 111.283C55.5762 111.289 54.5533 111.346 53.5354 111.455C51.8728 111.595 51.4521 111.93 51.2598 113.574C50.9433 116.34 50.723 119.118 50.4586 121.888C50.1341 125.2 49.8456 128.521 49.441 131.826C49.2981 132.716 48.9926 133.572 48.5396 134.352C47.462 136.348 45.1665 136.607 43.9486 134.711C43.0811 133.369 42.5558 131.836 42.4184 130.245C42.19 126.533 42.3062 122.802 42.3022 119.07C42.3022 116.48 42.3301 113.882 42.3382 111.303C42.3382 110.904 42.3021 110.533 42.2701 109.978C40.8719 109.978 39.5419 109.978 38.2158 109.946C28.9315 109.696 19.8356 107.279 11.6592 102.89C6.69559 100.224 2.88988 96.4005 0.954916 90.9925C-0.124531 87.8939 -0.292698 84.5525 0.47019 81.3619C1.43567 76.9717 4.68063 74.3814 9.38383 73.9424C14.3721 73.4503 19.3714 74.7621 23.4692 77.6382C25.8409 79.2346 27.9803 81.1863 30.3159 82.8546C32.2588 84.2395 34.322 85.4648 36.3491 86.7339C37.2184 87.2767 37.8473 86.9255 37.9314 85.9796C38.0155 85.0337 38.1598 83.9202 37.7632 83.1379C36.9156 81.3778 35.8467 79.7323 34.5823 78.2408C31.742 75.0479 28.5411 72.1544 25.7929 68.8857C23.699 66.3937 21.8703 63.6918 20.3365 60.8236C18.4016 57.2036 18.1573 53.2405 19.4473 49.2932C21.5745 42.7678 28.9818 41.4068 33.5808 43.8893C35.8709 45.0729 37.7324 46.94 38.905 49.2294C40.4674 52.3066 41.8816 55.4595 43.476 58.5207C44.2845 60.0766 45.248 61.5474 46.3523 62.9109C46.809 63.4737 47.8746 63.9606 48.5477 63.8369C49.6053 63.6453 50.1501 62.5717 50.1501 61.4901C50.1897 60.5923 50.0395 59.6963 49.7094 58.86C48.0348 55.1882 46.2988 51.5429 44.5014 47.9243C42.2019 43.2747 39.9907 38.609 39.0613 33.4445C38.1919 28.5993 38.2799 23.8658 40.2189 19.2362C41.0312 17.2737 42.2741 15.5172 43.8565 14.0956C48.1631 10.2122 55.7748 11.1621 58.8836 16.3186C61.2873 20.2778 62.3568 24.6122 63.0699 29.0902C63.6347 32.6104 64.0634 36.1505 64.6723 39.6627C64.928 40.8895 65.3456 42.0772 65.9143 43.1948C66.4992 44.4281 67.5167 44.5199 68.0856 43.3066C68.8719 41.6524 69.457 39.9106 69.8283 38.1181C70.7497 33.5523 71.2144 28.8787 72.3802 24.3807C74.5355 16.0632 79.0905 9.21442 86.2254 4.2375C89.7188 1.80291 93.5806 0.246403 97.9473 0.0229004C104.898 -0.328318 110.647 3.37544 112.297 10.0965C114.949 20.8725 112.698 30.4512 103.884 37.8388C99.2814 41.7061 94.426 45.2702 89.7308 49.0139C88.3286 50.1314 87.0787 51.4325 85.7606 52.6498L86.013 53.0609Z" fill="#ECC889"/>
</svg>
