<svg width="198" height="186" viewBox="0 0 198 186" fill="none" xmlns="http://www.w3.org/2000/svg">
<path d="M0.251366 94.6799C-0.543052 76.8305 15.172 61.1167 27.9693 57.8845C39.4739 54.9986 49.4475 58.3462 58.0127 66.1959C59.8325 67.932 61.7623 69.549 63.7903 71.0371C71.5034 76.4698 75.5116 74.3631 78.7254 65.0921C80.7836 59.1471 78.9854 53.3897 77.281 47.8559C73.8939 36.8462 73.9661 25.9374 78.7254 15.6275C82.5241 7.46032 88.8362 1.5009 98.5425 0.195021C110.17 -1.3778 122.324 6.75329 124.303 17.7125C125.127 22.2795 123.097 26.4208 122.397 30.7569C121.732 34.8621 120.952 38.9457 121.407 43.1447C121.891 47.7694 124.542 49.3566 128.788 47.4736C132.361 45.748 135.587 43.3835 138.307 40.4968C150.014 28.7584 163.721 27.7267 178.078 33.7799C188.536 38.1953 190.103 49.4288 182.274 56.9899C178.461 60.6694 173.499 62.2494 168.993 64.6664C166.667 65.9145 164.219 66.939 161.951 68.2738C155.336 72.2058 154.469 78.7569 159.525 84.8173C165.006 91.3827 172.806 93.6049 180.425 96.1445C188.044 98.6841 194.458 102.385 197.036 110.61C200.091 120.292 195.591 127.716 187.698 131.879C177.175 137.428 165.729 137.341 154.311 135.927C149.338 135.184 144.304 134.927 139.282 135.162C133.41 135.588 130.753 140.371 128.405 145.068C125.293 151.294 124.072 158.271 121.025 164.49C117.219 172.21 113.543 180.045 104.681 183.689C92.6349 188.638 74.6016 186.243 68.6579 170.572C66.1664 163.992 66.8308 157.153 68.5496 150.414C70.6729 142.059 74.2839 134.166 76.176 125.704C77.6204 119.246 75.1866 114.16 69.6257 112.414C68.3522 112.093 67.0206 112.078 65.7403 112.371C57.1606 113.669 49.303 117.536 40.8172 119.196C33.5952 120.639 26.3733 121.223 19.0718 119.766C7.24946 117.428 -1.62635 108.013 0.251366 94.6799ZM129.756 91.224C130.933 82.3931 123.827 76.7944 118.685 75.8277C107.996 73.8075 98.463 79.031 94.2165 89.0307C90.3672 98.0925 94.8737 106.346 102.103 109.456C115.326 115.062 130.745 101.837 129.756 91.2024V91.224Z" fill="white"/>
</svg>
