<svg width="192" height="179" viewBox="0 0 192 179" fill="none" xmlns="http://www.w3.org/2000/svg">
<path d="M46.7134 85.5617C47.2588 84.5278 47.5369 83.3742 47.5226 82.2058C47.5083 81.0373 47.202 79.8909 46.6315 78.8706C45.4054 76.1728 43.9721 73.5736 42.3447 71.0965C39.8585 67.4087 37.1166 63.9456 34.4565 60.3191C31.0762 55.7083 28.8296 50.3681 27.8983 44.7301C26.8463 38.5057 28.2612 32.1168 31.8435 26.9155C35.4258 21.7143 40.8944 18.1088 47.0919 16.8622C55.2769 15.2072 62.4387 17.3116 68.1375 23.2366C70.8145 25.9629 73.0852 29.0592 74.8798 32.4306C77.8264 38.1207 80.1693 44.1274 82.7885 49.9912C83.8832 52.4225 84.4561 55.1806 87.4232 57.234C87.8631 54.915 88.2928 52.9536 88.5895 50.9718C89.3876 45.721 89.7661 40.3681 90.9734 35.2195C94.8817 18.5375 104.663 6.79982 121.35 1.83506C133.699 -1.84254 145.424 -0.136566 155.645 8.26062C164.116 15.2378 166.899 25.5453 162.643 35.6587C161.017 39.4128 158.909 42.9396 156.371 46.1501C149.588 54.9661 141.024 61.8719 131.816 68.0012C128.419 70.2588 125.197 72.782 122.005 75.3053C120.169 76.7903 118.758 78.7316 117.912 80.9341C119.89 80.6077 121.847 80.1678 123.774 79.6163C128.549 77.9137 133.293 76.1225 138.006 74.2429C146.304 70.9535 154.683 67.9808 163.584 66.8673C171.841 65.8457 179.36 67.4904 185.755 73.0579C191.382 77.9511 193.418 85.388 190.993 91.8647C189.422 95.8186 186.446 99.0555 182.634 100.957C177.486 103.681 171.947 105.597 166.213 106.636C155.614 108.771 144.851 109.333 134.077 109.589C129.248 109.701 124.409 109.67 119.59 109.824C117.731 109.846 115.884 110.114 114.096 110.62C111.221 111.509 110.576 113.981 112.776 116.004C114.356 117.378 116.163 118.466 118.117 119.222C121.094 120.427 124.255 121.112 127.253 122.287C132.013 124.028 136.669 126.04 141.198 128.314C149.946 133.013 156.187 139.96 158.683 149.828C161.251 159.962 157.189 169.768 148.053 174.835C139.868 179.392 131.151 180.096 122.178 177.502C111.262 174.345 102.33 168.114 94.9533 159.604C91.71 155.865 88.8146 151.83 85.4588 148.193C82.103 144.557 78.5118 141.175 74.8286 137.896C73.3662 136.755 71.7143 135.881 69.9484 135.311C68.6281 134.763 67.1849 134.578 65.7688 134.776C64.3527 134.974 63.0156 135.547 61.8964 136.435C57.0015 140.038 52.7416 144.429 49.2916 149.429C45.6357 154.721 41.9184 159.972 38.1397 165.182C36.0141 168.248 33.1826 170.76 29.8831 172.506C23.1306 175.908 17.1044 172.854 15.7846 165.406C15.1985 162.465 15.6126 159.413 16.9612 156.733C19.0074 152.78 21.2071 148.929 23.55 145.149C25.4939 142.003 27.8164 139.091 29.8013 135.955C30.3865 134.902 30.6928 133.717 30.6914 132.512C30.7258 130.339 30.307 128.182 29.4615 126.179C28.6161 124.176 27.3625 122.37 25.7804 120.877C21.5243 116.556 17.0942 112.408 12.8585 108.077C9.69898 104.95 6.71056 101.656 3.9062 98.2086C1.26097 94.8736 -0.119576 90.713 0.00812808 86.4607C0.233214 76.8785 8.55115 69.9932 17.9024 72.0976C21.1056 72.9942 24.1797 74.2989 27.0491 75.9795C31.5406 78.3393 35.8172 81.0873 40.3496 83.4369C42.4097 84.3162 44.538 85.0268 46.7134 85.5617Z" fill="#BBBEA0"/>
</svg>
