<svg width="187" height="213" viewBox="0 0 187 213" fill="none" xmlns="http://www.w3.org/2000/svg">
<path d="M128.959 122.611C180.213 116.375 199.722 7.94808 178.605 0.92005C157.488 -6.10798 132.441 28.3416 124.988 62.8723C121.01 80.7552 121.15 99.3048 125.395 117.126C121.849 128.37 119.126 139.857 117.25 151.495C114.256 144.588 110.876 137.804 107.17 131.182C112.81 124.256 106.131 109.042 94.5038 83.8955C81.9599 56.799 45.937 -1.09088 24.9016 11.4418C3.86617 23.9744 26.5917 75.7706 54.4285 99.1297C68.6769 111.245 84.2357 121.737 100.816 130.41C108.803 143.947 115.185 158.364 119.836 173.371C111.355 164.894 102.028 157.306 91.999 150.723C75.3621 123.159 18.9147 90.8016 3.82543 105.853C-12.1395 121.757 25.5328 151.21 49.2969 155.354C62.9719 157.58 76.9016 157.778 90.6347 155.943C102.386 163.778 113.1 173.059 122.524 183.568C124.547 192.395 125.653 201.407 125.823 210.461C125.823 211.134 126.091 211.78 126.568 212.256C127.046 212.732 127.693 213 128.368 213C129.043 213 129.691 212.732 130.168 212.256C130.645 211.78 130.914 211.134 130.914 210.461C130.468 193.423 127.086 176.589 120.915 160.696C120.915 160.696 120.915 160.696 120.915 160.696C122.565 147.806 125.255 135.069 128.959 122.611V122.611Z" fill="#ECC889"/>
</svg>
