<svg width="205" height="166" viewBox="0 0 205 166" fill="none" xmlns="http://www.w3.org/2000/svg">
<path d="M87.4987 97.1871C87.8128 92.1024 87.4987 87.6445 87.9874 83.2563C88.794 74.732 90.241 66.28 92.3162 57.9718C93.6428 52.3647 95.0042 46.7924 96.261 41.2201C99.2646 29.3852 103.019 17.7527 107.502 6.39302C108.033 4.64777 108.847 3.00085 109.911 1.51726C110.192 1.01487 110.614 0.605043 111.125 0.338038C111.635 0.0710333 112.213 -0.0416573 112.787 0.0137665C113.361 0.0691904 113.907 0.290409 114.357 0.650193C114.807 1.00998 115.142 1.49279 115.322 2.03964C115.7 2.78223 115.992 3.56493 116.194 4.37299C118.114 11.9653 120.314 19.488 121.745 27.2196C122.828 33.1445 123.493 39.1378 123.735 45.1555C124.457 57.3182 124.094 69.5207 122.653 81.6194C121.815 87.9928 120.907 94.3661 120.034 100.739C121.186 100.739 121.256 99.625 121.64 98.8936C132.427 78.7984 143.808 58.9818 156.305 39.8618C158.779 36.2991 160.907 32.5089 162.659 28.543C163.462 26.5927 163.986 24.5379 164.719 22.5876C164.841 22.1093 165.129 21.6896 165.531 21.4027C165.934 21.1159 166.425 20.9805 166.918 21.0204C167.418 21.0348 167.895 21.2299 168.261 21.5695C168.627 21.9091 168.857 22.3701 168.908 22.8662C169.029 23.4159 169.099 23.9754 169.117 24.5379C169.891 35.2945 169.984 46.089 169.397 56.8574C168.324 70.8325 165.196 84.5741 160.111 97.6399C156.944 106.27 151.956 114.121 145.484 120.661C146.182 121.462 146.775 120.939 147.334 120.661C152.158 118.72 156.729 116.206 160.948 113.173C168.349 107.844 175.715 102.516 183.046 97.0827C188.408 92.8387 193.427 88.1807 198.057 83.1518C199.009 82.1267 200.023 81.1612 201.095 80.2611C201.481 79.9533 201.953 79.7715 202.446 79.7403C202.939 79.7092 203.43 79.8302 203.852 80.087C204.282 80.3306 204.62 80.7072 204.815 81.1598C205.01 81.6123 205.052 82.1161 204.935 82.5946C204.772 83.5623 204.539 84.5168 204.236 85.4504C201.418 94.2469 198.013 102.845 194.043 111.188C190.442 118.813 185.553 125.764 179.59 131.735C175.855 135.497 172.294 139.467 168.245 142.985C156.5 152.809 142.604 159.74 127.68 163.219C117.727 165.716 107.427 166.54 97.2035 165.657C93.4391 165.298 89.6979 164.728 85.9975 163.95C82.8208 163.289 79.7138 162.557 76.5021 162.14C70.6685 161.267 64.9455 159.772 59.4313 157.682C52.6556 155.31 46.39 151.682 40.9642 146.99C34.9321 141.939 29.8389 135.867 25.9181 129.054C20.6817 119.616 14.9216 110.491 9.58041 101.192C6.48111 95.8674 3.69527 90.367 1.23702 84.719C0.56753 83.4905 0.15205 82.1404 0.0151901 80.7488C-0.0345747 80.3218 0.0385186 79.8896 0.225918 79.5026C0.413317 79.1156 0.707278 78.7897 1.07344 78.5633C1.43959 78.3368 1.8628 78.2189 2.2936 78.2236C2.7244 78.2282 3.14498 78.3552 3.50615 78.5895C4.65712 79.3816 5.71154 80.3049 6.64802 81.3408C12.7762 87.7129 19.6708 93.3045 27.1749 97.9881C31.6578 100.821 36.3224 103.358 41.1387 105.58L57.8604 113.312C58.3142 113.521 58.8728 114.009 59.3266 113.312C59.7804 112.616 59.3266 112.546 59.3266 112.163C57.9651 107.914 56.5338 103.665 55.2073 99.3812C52.6252 90.927 51.3308 82.1336 51.3672 73.2957C51.3672 65.1926 51.5767 57.0663 51.9956 48.9168C52.2475 42.9078 53.1369 36.9423 54.6487 31.1202C54.8582 30.2844 55.1375 29.4833 55.3818 28.6823C55.8706 27.1499 56.5339 25.7917 58.419 25.6524C59.7804 25.6524 60.7928 26.5927 61.4212 28.6823C61.8052 30.0406 62.0845 31.3989 62.4336 32.7571C65.2031 43.6231 68.3333 54.3615 71.8243 64.9721C75.6214 75.6753 80.4498 85.9859 86.2419 95.7592C86.6007 96.2847 87.0227 96.7643 87.4987 97.1871V97.1871Z" fill="#FFC0A7"/>
</svg>
