<svg width="197" height="192" viewBox="0 0 197 192" fill="none" xmlns="http://www.w3.org/2000/svg">
<path d="M85.8181 14.116C86.7662 10.222 87.9546 6.2268 90.6852 3.29358C93.4158 0.360372 98.0933 -1.10633 101.507 0.979788C104.692 2.92683 105.653 7.04863 106.134 10.7531C107.973 24.9387 106.976 39.3483 103.201 53.1455C114.564 41.2019 129.794 33.6757 146.183 31.9051C148.711 31.6269 151.53 31.5763 153.553 33.1694C154.541 34.0839 155.252 35.2566 155.608 36.5549C155.963 37.8531 155.948 39.225 155.563 40.515C154.755 43.106 153.363 45.4766 151.493 47.4434C145.06 54.9821 137.084 61.0527 128.105 65.2451C137.991 66.1554 147.94 64.5623 157.864 64.4738C167.788 64.3853 178.319 66.0668 185.942 72.4389C188.103 74.2469 190.126 77.0284 189.178 79.6834C188.369 81.9213 185.84 82.9581 183.565 83.6787C171.032 87.6502 158.019 89.9086 144.881 90.3923C162.026 92.0396 178.239 98.961 191.289 110.204C194.096 112.632 196.978 115.906 196.346 119.56C195.802 122.607 192.806 124.744 189.759 125.287C186.67 125.624 183.545 125.335 180.569 124.44L131.645 113.061C144.73 127.008 152.312 145.229 152.984 164.342C153.087 165.184 152.937 166.038 152.554 166.795C152.253 167.19 151.872 167.517 151.437 167.757C151.001 167.996 150.521 168.142 150.026 168.186C143.819 169.248 138.648 163.71 134.856 158.627C127.372 148.452 120.41 137.902 113.997 127.02C113.997 147.249 113.693 168.514 104.01 186.316C102.429 189.224 99.3828 192.423 96.4246 191.044C95.4426 190.505 94.6289 189.704 94.0732 188.731C90.5461 183.332 89.8888 176.581 89.4337 170.133C88.338 154.506 87.7902 138.858 87.7902 123.189C74.3898 141.913 60.2562 161.308 39.9028 172.08C36.5275 173.875 31.5719 175.026 29.5239 171.802C28.7221 170.169 28.5336 168.302 28.9929 166.542C32.2545 146.313 48.3097 131.065 63.4673 117.347C44.8544 120.292 25.8719 119.989 7.3627 116.45C4.12639 115.83 0.182125 114.313 0.00513914 111.026C-0.108638 108.788 1.68651 106.942 3.43108 105.539C20.7504 91.5555 44.5298 89.5705 66.7415 88.1798C48.1476 85.3098 31.1249 76.0781 18.576 62.059C14.7835 57.8361 11.3828 52.8547 11.1173 47.2033C10.9672 46.0804 11.2472 44.9422 11.9011 44.0172C12.4166 43.5634 13.0178 43.2177 13.6693 43.0005C14.3207 42.7834 15.0091 42.6991 15.6937 42.7528C25.6718 42.3121 35.607 44.3108 44.6386 48.5759C53.6702 52.841 61.5259 59.2439 67.5253 67.23C60.0783 61.8126 53.8326 54.9129 49.1811 46.9645C44.5296 39.0161 41.573 30.191 40.497 21.0445C40.2681 19.9816 40.3878 18.8732 40.8383 17.8837C41.473 16.9716 42.4235 16.3274 43.5058 16.0758C48.651 14.4322 54.4157 15.7724 58.9921 18.6044C63.5684 21.4365 67.0702 25.8489 70.1675 30.2234C74.8619 36.8248 78.6542 44.0234 81.444 51.6284C82.1646 38.9726 82.7714 26.5696 85.8181 14.116Z" fill="white"/>
<path d="M86.2477 81.5671C81.9529 84.5173 78.9107 88.9617 77.7144 94.0333C76.9812 97.232 77.095 100.873 79.1177 103.478C81.3047 106.31 85.1226 107.271 88.6876 107.663C93.6749 108.375 98.7589 107.943 103.554 106.398C105.945 105.619 108.149 104.354 110.029 102.683C111.908 101.012 113.423 98.9716 114.477 96.6884C116.399 92.0484 115.602 86.1946 111.949 82.781C105.337 76.7122 93.3524 76.7374 86.2477 81.5671Z" fill="#F3E5DA"/>
</svg>
