<svg width="112" height="238" viewBox="0 0 112 238" fill="none" xmlns="http://www.w3.org/2000/svg">
<path d="M51.736 173.386C54.2313 168.173 56.6194 162.904 59.2286 157.748C66.3578 143.607 74.2002 129.814 84.0955 117.36C89.506 110.49 95.8111 104.365 102.845 99.1486C103.666 98.5305 104.528 97.9689 105.426 97.4678C108.67 95.7445 112.07 97.7727 111.999 101.446C111.985 102.765 111.799 104.076 111.443 105.347C104.556 128.75 94.9959 150.812 78.7699 169.499C75.903 172.937 72.7838 176.158 69.4379 179.137C57.1044 189.668 51.8288 203.519 49.9966 219.043C49.4761 223.475 49.2481 227.943 48.8774 232.389C48.8204 233.049 48.7419 233.701 48.6278 234.347C48.2143 236.715 46.8668 238.042 44.949 237.999C43.0313 237.956 41.6054 236.538 41.3844 234.219C40.7713 228.546 40.0299 222.872 39.7661 217.199C39.6369 213.074 38.2633 209.083 35.8238 205.745C32.5373 201.256 29.4075 196.526 25.4722 192.654C15.748 183.059 9.38155 171.705 5.58883 158.713C2.12404 146.834 -0.513737 134.863 0.0851149 122.396C0.119011 120.567 0.341127 118.747 0.74808 116.963C1.73191 113.24 5.4819 112.091 8.27654 114.772C10.3436 116.645 12.0956 118.836 13.4664 121.261C19.1056 132.189 24.6735 143.16 29.8636 154.287C33.086 161.152 35.6596 168.315 38.7893 175.988C39.0816 171.981 39.1744 168.577 39.6021 165.209C40.6287 157.152 38.8891 149.344 37.8554 141.437C36.3867 130.438 32.4159 120.162 29.0723 109.73C23.8609 93.4184 19.8045 76.8803 17.8083 59.8528C16.5607 49.0875 15.4272 38.3009 16.2043 27.4433C16.4681 23.8123 17.2521 20.2168 17.8296 16.6141C17.9545 16.0404 18.1411 15.4817 18.3859 14.9476C20.988 8.51532 25.7715 7.51538 30.6336 12.4655C35.1178 17.0326 37.6129 22.7202 39.6234 28.6631C43.8367 41.1589 44.3431 54.1227 44.1007 67.1007C43.6872 88.5747 45.2341 109.964 46.496 131.374C46.6956 134.728 46.8669 138.09 47.3374 141.515C47.4942 140.806 47.6938 140.146 47.815 139.458C51.0445 120.927 53.9033 102.326 57.5748 83.8799C62.0448 61.3918 67.8054 39.2015 75.569 17.5715C77.2016 13.0399 79.44 8.72099 81.429 4.31698C81.7419 3.6545 82.1319 3.03088 82.591 2.45893C85.293 -1.02314 89.6061 -0.845867 91.146 3.23901C92.536 7.08012 93.4159 11.0855 93.7627 15.1533C95.3454 30.8191 91.8875 45.8679 87.6671 60.8032C84.3734 72.4905 78.9411 83.3268 74.2358 94.4609C69.8601 104.786 66.2198 115.405 63.3422 126.239C61.3318 133.806 58.4875 141.132 56.4699 148.713C54.5023 156.117 53.0978 163.677 51.4795 171.18C51.3804 171.885 51.3278 172.596 51.3225 173.308L51.736 173.386Z" fill="#D9AD99"/>
</svg>
