<svg width="241" height="199" viewBox="0 0 241 199" fill="none" xmlns="http://www.w3.org/2000/svg">
<path d="M94.7236 63.2321C95.3594 51.0886 97.6222 39.0851 101.451 27.5428C106.511 13.0597 119.986 -17.2587 128.233 12.8558C132.144 27.2093 132.885 43.1185 132.515 57.9165C151.659 39.2813 176.046 26.9386 202.407 22.5421C204.742 22.1532 207.486 21.9679 209.098 23.6904C217.605 32.7469 179.165 61.6763 172.882 65.936C195.512 66.4731 219.014 69.0845 238.271 80.9748C239.383 81.6786 240.606 82.586 240.643 83.901C240.588 84.4429 240.42 84.9671 240.148 85.4394C239.877 85.9118 239.509 86.3216 239.068 86.642C231.654 93.4946 221.164 95.9025 211.1 96.7915C201.036 97.6805 190.712 97.1802 180.926 99.4027C194.47 104.448 206.752 112.38 216.919 122.646C221.905 127.684 226.594 133.925 226.446 141C219.181 144.482 210.599 142.204 202.889 139.889L158.407 126.517C162.855 136.037 167.341 145.704 169.083 156.15C170.825 166.596 169.509 177.838 163.207 186.246C162.44 187.493 161.269 188.44 159.89 188.932C157.017 189.691 154.515 186.95 152.865 184.487C143.593 170.707 135.578 156.122 128.919 140.908C124.786 155.02 120.653 169.17 114.648 182.56C111.293 189.969 106.011 198.155 97.8559 198.636C96.0168 198.826 94.1717 198.338 92.6663 197.266C90.4421 195.414 89.9603 192.395 89.6637 189.598C87.5638 169.973 87.2598 150.198 88.7556 130.517L42.4201 160.928C38.3425 163.595 34.0982 166.336 29.2978 167.133C24.4975 167.929 18.9002 166.188 16.6575 161.854C13.5438 155.798 18.2144 148.705 23.0333 143.871C38.8244 127.999 58.6375 116.868 78.191 105.922C64.6055 103.274 51.0199 100.607 37.5456 97.4582C26.2212 94.8283 14.5817 91.6613 5.59263 84.29C1.21856 80.7156 -2.32147 73.6777 1.88579 69.8995C2.86214 69.0846 3.98055 68.4568 5.18487 68.0474C29.65 58.7871 56.9694 67.5103 81.1751 77.5114C69.7728 63.9947 59.4251 49.6238 50.223 34.5251C47.8135 30.5802 45.4226 26.376 45.2187 21.7644C45.0488 19.9335 45.4711 18.0962 46.4234 16.5229C47.2328 15.5054 48.2497 14.672 49.4066 14.078C50.5635 13.484 51.8338 13.1431 53.1328 13.0781C62.4926 12.0409 70.9257 18.6342 77.2273 25.7647C85.4118 35.0706 91.9209 45.7232 96.4658 57.2497" fill="#ECC889"/>
<path d="M135.462 79.4563C137.608 79.0059 139.836 79.1404 141.912 79.8453C145.211 81.327 146.49 85.4015 147.083 88.8649C147.845 93.516 148.044 98.2418 147.676 102.941C147.659 103.984 147.405 105.01 146.935 105.941C145.855 107.338 144.298 108.287 142.561 108.608C130.591 112.297 118.22 114.53 105.715 115.257C103.629 115.543 101.506 115.294 99.5428 114.534C96.392 113.034 94.9649 109.349 94.1864 105.959C93.2405 101.878 92.7618 97.7028 92.7593 93.5136C92.6848 91.9899 92.9376 90.4679 93.5007 89.05C95.9843 83.8457 104.325 84.1421 109.181 83.4939C117.947 82.0492 126.658 80.5304 135.462 79.4563Z" fill="#F7ECE2"/>
</svg>
