<svg width="1892" height="1892" viewBox="0 0 1892 1892" fill="none" xmlns="http://www.w3.org/2000/svg">
<path d="M1002 10.7707C959.12 -3.59024 932.881 -3.59024 890.001 10.7707C785.395 45.8044 789.932 267.512 822.257 486.255C740.416 280.84 633.054 86.8087 524.995 109.015C480.7 118.118 458.006 131.289 428.128 165.233C356.274 246.867 467.221 432.165 602.36 603.113C431.115 468.35 245.573 357.81 164.098 429.843C130.219 459.796 117.099 482.519 108.093 526.834C86.2732 634.205 277.756 740.421 481.788 821.601C264.503 789.875 45.566 786.106 10.7707 890.001C-3.59024 932.881 -3.59024 959.119 10.7707 1002C45.566 1105.89 264.503 1102.12 481.788 1070.4C277.756 1151.58 86.2724 1257.79 108.092 1365.17C117.098 1409.48 130.219 1432.2 164.097 1462.16C245.572 1534.19 431.11 1423.65 602.354 1288.89C467.216 1459.84 356.272 1645.13 428.125 1726.77C458.003 1760.71 480.697 1773.88 524.993 1782.98C633.053 1805.19 740.417 1611.15 822.258 1405.73C789.932 1624.48 785.393 1846.2 890.001 1881.23C932.881 1895.59 959.12 1895.59 1002 1881.23C1106.61 1846.19 1102.07 1624.47 1069.74 1405.72C1151.58 1611.15 1258.95 1805.19 1367.01 1782.98C1411.31 1773.88 1434 1760.71 1463.88 1726.77C1535.73 1645.13 1424.79 1459.84 1289.65 1288.89C1460.89 1423.65 1646.43 1534.19 1727.91 1462.16C1761.78 1432.2 1774.91 1409.48 1783.91 1365.17C1805.73 1257.8 1614.25 1151.58 1410.22 1070.4C1627.5 1102.12 1846.43 1105.89 1881.23 1002C1895.59 959.12 1895.59 932.881 1881.23 890.001C1846.43 786.107 1627.5 789.875 1410.22 821.6C1614.25 740.42 1805.73 634.205 1783.91 526.834C1774.9 482.519 1761.78 459.796 1727.91 429.843C1646.43 357.81 1460.89 468.35 1289.64 603.113C1424.78 432.165 1535.73 246.867 1463.88 165.233C1434 131.289 1411.3 118.118 1367.01 109.015C1258.95 86.8083 1151.58 280.848 1069.74 486.267C1102.07 267.52 1106.61 45.805 1002 10.7707Z" fill="#F5BD33"/>
</svg>
