<svg width="1808" height="1808" viewBox="0 0 1808 1808" fill="none" xmlns="http://www.w3.org/2000/svg">
<path d="M903.87 1807.74C762.016 1807.74 645.349 1699.9 631.373 1561.74C523.791 1649.55 365.043 1643.31 264.737 1543C164.432 1442.7 158.187 1283.95 246.004 1176.37C107.836 1162.39 -6.20061e-06 1045.72 0 903.87C1.12272e-05 762.016 107.836 645.349 246.005 631.373C158.188 523.791 164.432 365.043 264.738 264.737C365.043 164.432 523.791 158.187 631.373 246.004C645.349 107.836 762.016 1.12272e-05 903.87 0C1045.72 -6.20061e-06 1162.39 107.836 1176.37 246.004C1283.95 158.187 1442.7 164.432 1543 264.737C1643.31 365.043 1649.55 523.791 1561.74 631.373C1699.9 645.349 1807.74 762.016 1807.74 903.87C1807.74 1045.72 1699.9 1162.39 1561.74 1176.37C1649.55 1283.95 1643.31 1442.7 1543 1543C1442.7 1643.31 1283.95 1649.55 1176.37 1561.74C1162.39 1699.9 1045.72 1807.74 903.87 1807.74Z" fill="#F4ADB3"/>
</svg>
