<svg width="1717" height="1717" viewBox="0 0 1717 1717" fill="none" xmlns="http://www.w3.org/2000/svg">
<path d="M51.4887 180.21C20.8957 164.306 0 132.322 0 95.4588C0 42.7383 42.7383 0 95.4588 0C132.322 0 164.306 20.8957 180.21 51.4887C196.114 20.8957 228.098 0 264.961 0C301.825 0 333.808 20.8956 349.713 51.4886C365.617 20.8956 397.6 0 434.464 0C471.327 0 503.311 20.8957 519.215 51.4887C535.119 20.8957 567.103 0 603.966 0C640.83 0 672.813 20.8956 688.718 51.4886C704.622 20.8956 736.605 0 773.469 0C810.332 0 842.316 20.8957 858.22 51.4887C874.124 20.8957 906.108 0 942.971 0C979.835 0 1011.82 20.8956 1027.72 51.4887C1043.63 20.8956 1075.61 0 1112.47 0C1149.34 0 1181.32 20.8956 1197.23 51.4887C1213.13 20.8956 1245.11 0 1281.98 0C1318.84 0 1350.82 20.8957 1366.73 51.4887C1382.63 20.8957 1414.62 0 1451.48 0C1488.34 0 1520.33 20.8956 1536.23 51.4887C1552.13 20.8956 1584.12 0 1620.98 0C1673.7 0 1716.44 42.7383 1716.44 95.4588C1716.44 132.322 1695.54 164.306 1664.95 180.21C1695.54 196.114 1716.44 228.098 1716.44 264.961C1716.44 301.825 1695.54 333.808 1664.95 349.713C1695.54 365.617 1716.44 397.6 1716.44 434.464C1716.44 471.327 1695.54 503.311 1664.95 519.215C1695.54 535.12 1716.44 567.103 1716.44 603.966C1716.44 640.83 1695.54 672.813 1664.95 688.718C1695.54 704.622 1716.44 736.605 1716.44 773.469C1716.44 810.332 1695.54 842.316 1664.95 858.22C1695.54 874.125 1716.44 906.108 1716.44 942.971C1716.44 979.835 1695.54 1011.82 1664.95 1027.72C1695.54 1043.63 1716.44 1075.61 1716.44 1112.47C1716.44 1149.34 1695.54 1181.32 1664.95 1197.23C1695.54 1213.13 1716.44 1245.11 1716.44 1281.98C1716.44 1318.84 1695.54 1350.82 1664.95 1366.73C1695.54 1382.63 1716.44 1414.62 1716.44 1451.48C1716.44 1488.34 1695.54 1520.33 1664.95 1536.23C1695.54 1552.13 1716.44 1584.12 1716.44 1620.98C1716.44 1673.7 1673.7 1716.44 1620.98 1716.44C1584.12 1716.44 1552.13 1695.54 1536.23 1664.95C1520.33 1695.54 1488.34 1716.44 1451.48 1716.44C1414.62 1716.44 1382.63 1695.54 1366.73 1664.95C1350.82 1695.54 1318.84 1716.44 1281.98 1716.44C1245.11 1716.44 1213.13 1695.54 1197.23 1664.95C1181.32 1695.54 1149.34 1716.44 1112.47 1716.44C1075.61 1716.44 1043.63 1695.54 1027.72 1664.95C1011.82 1695.54 979.835 1716.44 942.971 1716.44C906.108 1716.44 874.124 1695.54 858.22 1664.95C842.316 1695.54 810.332 1716.44 773.469 1716.44C736.605 1716.44 704.622 1695.54 688.718 1664.95C672.813 1695.54 640.83 1716.44 603.966 1716.44C567.103 1716.44 535.12 1695.54 519.215 1664.95C503.311 1695.54 471.327 1716.44 434.464 1716.44C397.6 1716.44 365.617 1695.54 349.713 1664.95C333.808 1695.54 301.825 1716.44 264.961 1716.44C228.098 1716.44 196.114 1695.54 180.21 1664.95C164.306 1695.54 132.322 1716.44 95.4588 1716.44C42.7383 1716.44 0 1673.7 0 1620.98C0 1584.12 20.8957 1552.13 51.4888 1536.23C20.8957 1520.33 0 1488.34 0 1451.48C0 1414.62 20.8957 1382.63 51.4887 1366.73C20.8957 1350.82 0 1318.84 0 1281.98C0 1245.11 20.8957 1213.13 51.4887 1197.23C20.8957 1181.32 0 1149.34 0 1112.47C0 1075.61 20.8957 1043.63 51.4888 1027.72C20.8957 1011.82 0 979.835 0 942.971C0 906.108 20.8957 874.125 51.4887 858.22C20.8957 842.316 0 810.332 0 773.469C0 736.605 20.8956 704.622 51.4886 688.718C20.8956 672.813 0 640.83 0 603.966C0 567.103 20.8957 535.119 51.4887 519.215C20.8957 503.311 0 471.327 0 434.464C0 397.6 20.8957 365.617 51.4887 349.713C20.8956 333.808 0 301.825 0 264.961C0 228.098 20.8957 196.114 51.4887 180.21Z" fill="#E2D6B8"/>
</svg>
