<svg width="1950" height="1950" viewBox="0 0 1950 1950" fill="none" xmlns="http://www.w3.org/2000/svg">
<path d="M1831.26 1260.26C1988.93 1102.58 1988.93 846.935 1831.26 689.258C1673.58 531.581 1417.93 531.581 1260.26 689.258C1417.93 531.581 1417.93 275.935 1260.26 118.258C1102.58 -39.4192 846.935 -39.4192 689.258 118.258C531.581 275.935 531.581 531.581 689.258 689.258C531.581 531.581 275.935 531.581 118.258 689.258C-39.4194 846.935 -39.4194 1102.58 118.258 1260.26C275.935 1417.94 531.581 1417.94 689.258 1260.26C531.581 1417.94 531.581 1673.58 689.258 1831.26C846.935 1988.94 1102.58 1988.94 1260.26 1831.26C1417.9 1673.62 1417.94 1418.06 1260.37 1260.37C1418.06 1417.94 1673.62 1417.9 1831.26 1260.26Z" fill="#336BB7"/>
</svg>
