<svg width="1790" height="1790" viewBox="0 0 1790 1790" fill="none" xmlns="http://www.w3.org/2000/svg">
<path d="M1046.91 152.167C1046.91 68.1273 978.779 0 894.74 0C810.701 0 742.573 68.1273 742.573 152.167V318.98L660.156 173.948C618.635 100.883 525.744 75.3107 452.678 116.832C379.612 158.353 354.04 251.244 395.561 324.31L489.347 489.347L324.31 395.561C251.244 354.04 158.353 379.612 116.832 452.678C75.3108 525.744 100.883 618.635 173.949 660.156L318.981 742.573H152.167C68.1273 742.573 0 810.701 0 894.74C0 978.779 68.1273 1046.91 152.167 1046.91H318.98L173.949 1129.32C100.883 1170.84 75.3109 1263.74 116.832 1336.8C158.353 1409.87 251.244 1435.44 324.31 1393.92L489.347 1300.13L395.561 1465.17C354.04 1538.24 379.612 1631.13 452.678 1672.65C525.744 1714.17 618.635 1688.6 660.156 1615.53L742.573 1470.5V1637.31C742.573 1721.35 810.701 1789.48 894.74 1789.48C978.779 1789.48 1046.91 1721.35 1046.91 1637.31V1470.5L1129.32 1615.53C1170.84 1688.6 1263.74 1714.17 1336.8 1672.65C1409.87 1631.13 1435.44 1538.24 1393.92 1465.17L1300.13 1300.13L1465.17 1393.92C1538.24 1435.44 1631.13 1409.87 1672.65 1336.8C1714.17 1263.74 1688.6 1170.84 1615.53 1129.32L1470.5 1046.91H1637.31C1721.35 1046.91 1789.48 978.779 1789.48 894.74C1789.48 810.701 1721.35 742.573 1637.31 742.573H1470.5L1615.53 660.156C1688.6 618.635 1714.17 525.744 1672.65 452.678C1631.13 379.612 1538.24 354.04 1465.17 395.561L1300.13 489.347L1393.92 324.31C1435.44 251.244 1409.87 158.353 1336.8 116.832C1263.74 75.3107 1170.84 100.883 1129.32 173.948L1046.91 318.98V152.167Z" fill="#336BB7"/>
</svg>
