<svg width="50" height="50" viewBox="0 0 50 50" fill="none" xmlns="http://www.w3.org/2000/svg">
<g clip-path="url(#clip0_82_8693)">
<path d="M50 40.4688H47.625V47.6094H50V40.4688Z" fill="#000001"/>
<path d="M47.625 38.0938H45.2344V40.4688H47.625V38.0938Z" fill="#000001"/>
<path d="M45.2344 19.0469H47.625V9.51562H50V7.14062H42.8594V9.51562H45.2344V19.0469Z" fill="#000001"/>
<path d="M47.625 47.6094H2.375V50H47.625V47.6094Z" fill="#000001"/>
<path d="M45.2344 19.0469H42.8594V21.4219H45.2344V19.0469Z" fill="#000001"/>
<path d="M42.8594 42.8594H40.4688V45.2344H42.8594V42.8594Z" fill="#000001"/>
<path d="M45.2344 35.7031H38.0938V38.0937H45.2344V35.7031Z" fill="#000001"/>
<path d="M42.8594 21.4219H40.4688V23.8125H42.8594V21.4219Z" fill="#000001"/>
<path d="M42.8594 9.51562H38.0938V11.9062H42.8594V9.51562Z" fill="#000001"/>
<path d="M40.4687 16.6562H35.7188V19.0469H40.4687V16.6562Z" fill="#000001"/>
<path d="M38.0937 38.0938H35.7188V40.4688H38.0937V38.0938Z" fill="#000001"/>
<path d="M38.0937 11.9062H33.3281V14.2813H38.0937V11.9062Z" fill="#000001"/>
<path d="M35.7188 33.3281H33.3281V38.0937H35.7188V33.3281Z" fill="#000001"/>
<path d="M40.4687 23.8125H33.3281V26.1875H40.4687V23.8125Z" fill="#000001"/>
<path d="M35.7188 19.0469H33.3281V21.4219H35.7188V19.0469Z" fill="#000001"/>
<path d="M33.3281 21.4219H30.9531V23.8125H33.3281V21.4219Z" fill="#000001"/>
<path d="M33.3281 14.2812H30.9531V16.6562H33.3281V14.2812Z" fill="#000001"/>
<path d="M33.3281 40.4688H28.5625V45.2344H33.3281V40.4688Z" fill="#000001"/>
<path d="M33.3281 30.9531H28.5625V33.3281H33.3281V30.9531Z" fill="#000001"/>
<path d="M30.9531 16.6562H28.5625V21.4219H30.9531V16.6562Z" fill="#000001"/>
<path d="M28.5625 35.7031H26.1875V38.0937H28.5625V35.7031Z" fill="#000001"/>
<path d="M28.5625 28.5625H26.1875V26.1875H30.9531V23.8125H26.1875V14.2812H23.8125V19.0469H21.4219V21.4219H23.8125V28.5625H21.4219V30.9531H28.5625V28.5625Z" fill="#000001"/>
<path d="M23.8125 9.51562H21.4219V14.2813H23.8125V9.51562Z" fill="#000001"/>
<path d="M23.8125 35.7031H19.0469V40.4687H23.8125V35.7031Z" fill="#000001"/>
<path d="M21.4219 30.9531H16.6719V33.3281H21.4219V30.9531Z" fill="#000001"/>
<path d="M21.4219 16.6562H19.0469V19.0469H21.4219V16.6562Z" fill="#000001"/>
<path d="M21.4219 7.14062H19.0469V9.51562H21.4219V7.14062Z" fill="#000001"/>
<path d="M21.4219 21.4219H14.2812V23.8125H21.4219V21.4219Z" fill="#000001"/>
<path d="M19.0469 14.2812H16.6719V16.6562H19.0469V14.2812Z" fill="#000001"/>
<path d="M19.0469 4.76562H16.6719V7.14063H19.0469V4.76562Z" fill="#000001"/>
<path d="M16.6719 42.8594H14.2812V45.2344H16.6719V42.8594Z" fill="#000001"/>
<path d="M16.6719 33.3281H14.2812V38.0937H16.6719V33.3281Z" fill="#000001"/>
<path d="M16.6719 11.9062H14.2812V14.2813H16.6719V11.9062Z" fill="#000001"/>
<path d="M14.2813 38.0938H11.9062V40.4688H14.2813V38.0938Z" fill="#000001"/>
<path d="M14.2813 19.0469H11.9062V21.4219H14.2813V19.0469Z" fill="#000001"/>
<path d="M14.2813 9.51562H11.9062V11.9062H14.2813V9.51562Z" fill="#000001"/>
<path d="M16.6719 2.375H11.9062V4.76562H16.6719V2.375Z" fill="#000001"/>
<path d="M11.9062 16.6562H9.51562V19.0469H11.9062V16.6562Z" fill="#000001"/>
<path d="M11.9062 7.14062H9.51562V9.51562H11.9062V7.14062Z" fill="#000001"/>
<path d="M9.51562 42.8594H7.14062V45.2344H9.51562V42.8594Z" fill="#000001"/>
<path d="M11.9062 35.7031H4.76562V38.0937H11.9062V35.7031Z" fill="#000001"/>
<path d="M9.51562 11.9062H7.14062V16.6562H9.51562V11.9062Z" fill="#000001"/>
<path d="M7.14063 7.14062H4.76562V11.9062H7.14063V7.14062Z" fill="#000001"/>
<path d="M11.9062 0H2.375V2.375H11.9062V0Z" fill="#000001"/>
<path d="M4.76562 38.0938H2.375V40.4688H4.76562V38.0938Z" fill="#000001"/>
<path d="M4.76562 4.76562H2.375V7.14063H4.76562V4.76562Z" fill="#000001"/>
<path d="M2.375 40.4688H0V47.6094H2.375V40.4688Z" fill="#000001"/>
<path d="M2.375 2.375H0V4.76562H2.375V2.375Z" fill="#000001"/>
</g>
<defs>
<clipPath id="clip0_82_8693">
<rect width="50" height="50" fill="white"/>
</clipPath>
</defs>
</svg>
