<svg width="50" height="50" viewBox="0 0 50 50" fill="none" xmlns="http://www.w3.org/2000/svg">
<path d="M46.4219 30.9531H44.0469V42.8594H46.4219V30.9531Z" fill="#000001"/>
<path d="M44.0469 42.8594H41.6719V45.2344H44.0469V42.8594Z" fill="#000001"/>
<path d="M44.0469 28.5781H41.6719V30.9531H44.0469V28.5781Z" fill="#000001"/>
<path d="M41.6719 45.2344H39.2812V47.625H41.6719V45.2344Z" fill="#000001"/>
<path d="M41.6719 26.1875H39.2812V28.5781H41.6719V26.1875Z" fill="#000001"/>
<path d="M39.2812 47.625H27.375V50H39.2812V47.625Z" fill="#000001"/>
<path d="M32.1406 40.4844H29.7656V42.8594H32.1406V40.4844Z" fill="#000001"/>
<path d="M29.7656 9.53125V7.14062H32.1406V23.8125H25V28.5781H27.375V26.1875H39.2812V23.8125H34.5313V9.53125H39.2812V7.14062H41.6719V4.76562H44.0469V0H36.9063V2.375H34.5313V4.76562H32.1406V2.375H29.7656V0H17.8594V4.76562H20.2344V7.14062H27.375V9.53125H29.7656Z" fill="#000001"/>
<path d="M27.375 45.2344H25V47.625H27.375V45.2344Z" fill="#000001"/>
<path d="M27.375 33.3281H25V40.4844H27.375V33.3281Z" fill="#000001"/>
<path d="M27.375 9.53125H25V11.9062H27.375V9.53125Z" fill="#000001"/>
<path d="M22.625 42.8594V30.9531H20.2344V42.8594H10.7188V45.2344H25V42.8594H22.625Z" fill="#000001"/>
<path d="M25 28.5781H22.625V30.9531H25V28.5781Z" fill="#000001"/>
<path d="M25 21.4219H22.625V23.8125H25V21.4219Z" fill="#000001"/>
<path d="M25 11.9062H22.625V14.2813H25V11.9062Z" fill="#000001"/>
<path d="M22.625 14.2812H20.2344V16.6719H22.625V14.2812Z" fill="#000001"/>
<path d="M22.625 21.4219V19.0469H20.2344V16.6719H17.8594V19.0469H10.7188V21.4219H22.625Z" fill="#000001"/>
<path d="M13.0938 35.7188H10.7188V38.0937H13.0938V35.7188Z" fill="#000001"/>
<path d="M10.7188 40.4844H8.32812V42.8594H10.7188V40.4844Z" fill="#000001"/>
<path d="M10.7188 28.5781H8.32812V35.7188H10.7188V28.5781Z" fill="#000001"/>
<path d="M10.7188 21.4219H8.32812V23.8125H10.7188V21.4219Z" fill="#000001"/>
<path d="M8.32812 38.0938H5.95312V40.4844H8.32812V38.0938Z" fill="#000001"/>
<path d="M8.32812 23.8125H5.95312V26.1875H8.32812V23.8125Z" fill="#000001"/>
<path d="M5.95312 26.1875H3.57812V38.0937H5.95312V26.1875Z" fill="#000001"/>
</svg>
