<svg width="50" height="50" viewBox="0 0 50 50" fill="none" xmlns="http://www.w3.org/2000/svg">
<path d="M45.2344 9.53125H42.8594V28.5781H45.2344V9.53125Z" fill="#000001"/>
<path d="M42.8594 28.5781H40.4688V30.9531H42.8594V28.5781Z" fill="#000001"/>
<path d="M42.8594 7.14062H40.4688V9.53125H42.8594V7.14062Z" fill="#000001"/>
<path d="M40.4688 30.9531H38.0938V33.3281H40.4688V30.9531Z" fill="#000001"/>
<path d="M40.4688 4.76562H38.0938V7.14063H40.4688V4.76562Z" fill="#000001"/>
<path d="M38.0937 33.3281H35.7031V35.7188H38.0937V33.3281Z" fill="#000001"/>
<path d="M38.0937 2.375H35.7031V4.76562H38.0937V2.375Z" fill="#000001"/>
<path d="M28.5625 35.7188V26.1875H26.1875V35.7188H23.8125V26.1875H21.4219V35.7188H14.2812V38.0937H16.6562V47.625H19.0469V45.2344H30.9531V47.625H33.3281V38.0937H35.7031V35.7188H28.5625ZM30.9531 40.4688H19.0469V38.0937H30.9531V40.4688Z" fill="#000001"/>
<path d="M33.3281 16.6719H30.9531V21.4219H33.3281V16.6719Z" fill="#000001"/>
<path d="M30.9531 21.4219H28.5625V26.1875H30.9531V21.4219Z" fill="#000001"/>
<path d="M30.9531 47.625H19.0469V50H30.9531V47.625Z" fill="#000001"/>
<path d="M21.4219 21.4219H19.0469V26.1875H21.4219V21.4219Z" fill="#000001"/>
<path d="M19.0469 16.6719H16.6562V21.4219H19.0469V16.6719Z" fill="#000001"/>
<path d="M35.7031 0H14.2812V2.375H35.7031V0Z" fill="#000001"/>
<path d="M14.2813 33.3281H11.9062V35.7188H14.2813V33.3281Z" fill="#000001"/>
<path d="M14.2813 2.375H11.9062V4.76562H14.2813V2.375Z" fill="#000001"/>
<path d="M11.9062 30.9531H9.51562V33.3281H11.9062V30.9531Z" fill="#000001"/>
<path d="M11.9062 4.76562H9.51562V7.14063H11.9062V4.76562Z" fill="#000001"/>
<path d="M9.51562 28.5781H7.14062V30.9531H9.51562V28.5781Z" fill="#000001"/>
<path d="M9.51562 7.14062H7.14062V9.53125H9.51562V7.14062Z" fill="#000001"/>
<path d="M7.14063 9.53125H4.76562V28.5781H7.14063V9.53125Z" fill="#000001"/>
</svg>
