<svg width="50" height="50" viewBox="0 0 50 50" fill="none" xmlns="http://www.w3.org/2000/svg">
<path d="M40.4766 36.8984H38.1016V39.2891H35.7109V41.6641H33.3359V44.0547H30.9453V46.4297H38.1016V44.0547H40.4766V41.6641H42.8516V34.5234H40.4766V36.8984Z" fill="#000001"/>
<path d="M38.1016 20.2422H40.4766V1.19531H35.7109V3.57031H38.1016V20.2422Z" fill="#000001"/>
<path d="M38.1016 20.2422H35.7109V22.6172H38.1016V20.2422Z" fill="#000001"/>
<path d="M35.7109 3.57031H33.3359V5.96094H35.7109V3.57031Z" fill="#000001"/>
<path d="M33.3359 41.6641V39.2891H35.7109V36.8984H38.1016V34.5234H40.4766V32.1484H33.3359V34.5234H30.9453V36.8984H28.5703V44.0547H30.9453V41.6641H33.3359Z" fill="#000001"/>
<path d="M35.7109 22.6172H30.9453V25.0078H35.7109V22.6172Z" fill="#000001"/>
<path d="M33.3359 5.96094H30.9453V8.33594H33.3359V5.96094Z" fill="#000001"/>
<path d="M30.9453 25.0078H19.0547V27.3828H23.8047V48.8047H26.1953V27.3828H30.9453V25.0078Z" fill="#000001"/>
<path d="M30.9453 3.57031H28.5703V5.96094H30.9453V3.57031Z" fill="#000001"/>
<path d="M28.5703 1.19531H21.4297V3.57031H28.5703V1.19531Z" fill="#000001"/>
<path d="M21.4297 3.57031H19.0547V5.96094H21.4297V3.57031Z" fill="#000001"/>
<path d="M19.0547 34.5234H16.6641V32.1484H9.52344V34.5234H11.8984V36.8984H14.2891V39.2891H16.6641V41.6641H19.0547V44.0547H21.4297V36.8984H19.0547V34.5234Z" fill="#000001"/>
<path d="M19.0547 22.6172H14.2891V25.0078H19.0547V22.6172Z" fill="#000001"/>
<path d="M19.0547 5.96094H16.6641V8.33594H19.0547V5.96094Z" fill="#000001"/>
<path d="M16.6641 41.6641H14.2891V39.2891H11.8984V36.8984H9.52344V34.5234H7.14844V41.6641H9.52344V44.0547H11.8984V46.4297H19.0547V44.0547H16.6641V41.6641Z" fill="#000001"/>
<path d="M16.6641 3.57031H14.2891V5.96094H16.6641V3.57031Z" fill="#000001"/>
<path d="M14.2891 20.2422H11.8984V22.6172H14.2891V20.2422Z" fill="#000001"/>
<path d="M11.8984 3.57031H14.2891V1.19531H9.52344V20.2422H11.8984V3.57031Z" fill="#000001"/>
</svg>
